<mxfile host="app.diagrams.net" agent="Mozilla/5.0 (Windows NT 10.0; Win64; x64) AppleWebKit/537.36 (KHTML, like Gecko) Chrome/131.0.0.0 Safari/537.36" version="27.0.6">
  <diagram name="Trang-1" id="IRxIiXHRf9ZG-HnfKhRD">
    <mxGraphModel grid="0" page="1" gridSize="10" guides="1" tooltips="1" connect="1" arrows="1" fold="1" pageScale="1" pageWidth="1169" pageHeight="1654" math="0" shadow="0">
      <root>
        <mxCell id="0" />
        <mxCell id="1" parent="0" />
        <mxCell id="CdbsHKp1LZGs0OKYdoEk-1" value="&lt;b&gt;&lt;u&gt;: QuanLyKhachHangUI&lt;/u&gt;&lt;/b&gt;" style="text;html=1;align=center;verticalAlign=middle;resizable=0;points=[];autosize=1;strokeColor=none;fillColor=none;labelBackgroundColor=none;fontColor=#393C56;fontSize=15;" vertex="1" parent="1">
          <mxGeometry x="249" y="90" width="190" height="30" as="geometry" />
        </mxCell>
        <mxCell id="CdbsHKp1LZGs0OKYdoEk-2" value="&lt;b&gt;&lt;u&gt;:&amp;nbsp;&lt;/u&gt;&lt;/b&gt;&lt;b&gt;&lt;u&gt;QuanLyKhachHang&lt;/u&gt;&lt;/b&gt;&lt;b&gt;&lt;u&gt;Controller&lt;/u&gt;&lt;/b&gt;" style="text;html=1;align=center;verticalAlign=middle;resizable=0;points=[];autosize=1;strokeColor=none;fillColor=none;labelBackgroundColor=none;fontColor=#393C56;fontSize=15;" vertex="1" parent="1">
          <mxGeometry x="434" y="85" width="240" height="30" as="geometry" />
        </mxCell>
        <mxCell id="CdbsHKp1LZGs0OKYdoEk-3" value="&lt;b&gt;&lt;u&gt;: Users&lt;/u&gt;&lt;/b&gt;" style="text;html=1;align=center;verticalAlign=middle;resizable=0;points=[];autosize=1;strokeColor=none;fillColor=none;labelBackgroundColor=none;fontColor=#393C56;fontSize=15;" vertex="1" parent="1">
          <mxGeometry x="729" y="90" width="70" height="30" as="geometry" />
        </mxCell>
        <mxCell id="CdbsHKp1LZGs0OKYdoEk-4" value="" style="shape=umlLifeline;perimeter=lifelinePerimeter;whiteSpace=wrap;html=1;container=1;dropTarget=0;collapsible=0;recursiveResize=0;outlineConnect=0;portConstraint=eastwest;newEdgeStyle={&quot;curved&quot;:0,&quot;rounded&quot;:0};participant=umlActor;labelBackgroundColor=none;fillColor=#F2CC8F;strokeColor=#E07A5F;fontColor=#393C56;fontSize=15;" vertex="1" parent="1">
          <mxGeometry x="94" y="50" width="20" height="910" as="geometry" />
        </mxCell>
        <mxCell id="CdbsHKp1LZGs0OKYdoEk-5" value="&lt;span style=&quot;color: rgba(0, 0, 0, 0); font-family: monospace; text-align: start;&quot;&gt;%3CmxGraphModel%3E%3Croot%3E%3CmxCell%20id%3D%220%22%2F%3E%3CmxCell%20id%3D%221%22%20parent%3D%220%22%2F%3E%3CmxCell%20id%3D%222%22%20value%3D%22dispatch%22%20style%3D%22html%3D1%3BverticalAlign%3Dbottom%3BendArrow%3Dblock%3BedgeStyle%3DelbowEdgeStyle%3Belbow%3Dvertical%3Bcurved%3D0%3Brounded%3D0%3B%22%20edge%3D%221%22%20parent%3D%221%22%3E%3CmxGeometry%20relative%3D%221%22%20as%3D%22geometry%22%3E%3CmxPoint%20x%3D%2295%22%20y%3D%22120%22%20as%3D%22sourcePoint%22%2F%3E%3CArray%20as%3D%22points%22%3E%3CmxPoint%20x%3D%22180%22%20y%3D%22120%22%2F%3E%3C%2FArray%3E%3CmxPoint%20x%3D%22295%22%20y%3D%22120%22%20as%3D%22targetPoint%22%2F%3E%3C%2FmxGeometry%3E%3C%2FmxCell%3E%3C%2Froot%3E%3C%2FmxGraphModel%3E&lt;/span&gt;" style="html=1;points=[];perimeter=orthogonalPerimeter;outlineConnect=0;targetShapes=umlLifeline;portConstraint=eastwest;newEdgeStyle={&quot;edgeStyle&quot;:&quot;elbowEdgeStyle&quot;,&quot;elbow&quot;:&quot;vertical&quot;,&quot;curved&quot;:0,&quot;rounded&quot;:0};labelBackgroundColor=none;fillColor=#F2CC8F;strokeColor=#E07A5F;fontColor=#393C56;fontSize=15;" vertex="1" parent="CdbsHKp1LZGs0OKYdoEk-4">
          <mxGeometry x="5" y="90" width="10" height="20" as="geometry" />
        </mxCell>
        <mxCell id="CdbsHKp1LZGs0OKYdoEk-33" value="&lt;span style=&quot;color: rgba(0, 0, 0, 0); font-family: monospace; text-align: start;&quot;&gt;%3CmxGraphModel%3E%3Croot%3E%3CmxCell%20id%3D%220%22%2F%3E%3CmxCell%20id%3D%221%22%20parent%3D%220%22%2F%3E%3CmxCell%20id%3D%222%22%20value%3D%22dispatch%22%20style%3D%22html%3D1%3BverticalAlign%3Dbottom%3BendArrow%3Dblock%3BedgeStyle%3DelbowEdgeStyle%3Belbow%3Dvertical%3Bcurved%3D0%3Brounded%3D0%3B%22%20edge%3D%221%22%20parent%3D%221%22%3E%3CmxGeometry%20relative%3D%221%22%20as%3D%22geometry%22%3E%3CmxPoint%20x%3D%2295%22%20y%3D%22120%22%20as%3D%22sourcePoint%22%2F%3E%3CArray%20as%3D%22points%22%3E%3CmxPoint%20x%3D%22180%22%20y%3D%22120%22%2F%3E%3C%2FArray%3E%3CmxPoint%20x%3D%22295%22%20y%3D%22120%22%20as%3D%22targetPoint%22%2F%3E%3C%2FmxGeometry%3E%3C%2FmxCell%3E%3C%2Froot%3E%3C%2FmxGraphModel%3E&lt;/span&gt;" style="html=1;points=[];perimeter=orthogonalPerimeter;outlineConnect=0;targetShapes=umlLifeline;portConstraint=eastwest;newEdgeStyle={&quot;edgeStyle&quot;:&quot;elbowEdgeStyle&quot;,&quot;elbow&quot;:&quot;vertical&quot;,&quot;curved&quot;:0,&quot;rounded&quot;:0};labelBackgroundColor=none;fillColor=#F2CC8F;strokeColor=#E07A5F;fontColor=#393C56;fontSize=15;" vertex="1" parent="CdbsHKp1LZGs0OKYdoEk-4">
          <mxGeometry x="5" y="220" width="10" height="20" as="geometry" />
        </mxCell>
        <mxCell id="CdbsHKp1LZGs0OKYdoEk-38" value="&lt;span style=&quot;color: rgba(0, 0, 0, 0); font-family: monospace; text-align: start;&quot;&gt;%3CmxGraphModel%3E%3Croot%3E%3CmxCell%20id%3D%220%22%2F%3E%3CmxCell%20id%3D%221%22%20parent%3D%220%22%2F%3E%3CmxCell%20id%3D%222%22%20value%3D%22dispatch%22%20style%3D%22html%3D1%3BverticalAlign%3Dbottom%3BendArrow%3Dblock%3BedgeStyle%3DelbowEdgeStyle%3Belbow%3Dvertical%3Bcurved%3D0%3Brounded%3D0%3B%22%20edge%3D%221%22%20parent%3D%221%22%3E%3CmxGeometry%20relative%3D%221%22%20as%3D%22geometry%22%3E%3CmxPoint%20x%3D%2295%22%20y%3D%22120%22%20as%3D%22sourcePoint%22%2F%3E%3CArray%20as%3D%22points%22%3E%3CmxPoint%20x%3D%22180%22%20y%3D%22120%22%2F%3E%3C%2FArray%3E%3CmxPoint%20x%3D%22295%22%20y%3D%22120%22%20as%3D%22targetPoint%22%2F%3E%3C%2FmxGeometry%3E%3C%2FmxCell%3E%3C%2Froot%3E%3C%2FmxGraphModel%3E&lt;/span&gt;" style="html=1;points=[];perimeter=orthogonalPerimeter;outlineConnect=0;targetShapes=umlLifeline;portConstraint=eastwest;newEdgeStyle={&quot;edgeStyle&quot;:&quot;elbowEdgeStyle&quot;,&quot;elbow&quot;:&quot;vertical&quot;,&quot;curved&quot;:0,&quot;rounded&quot;:0};labelBackgroundColor=none;fillColor=#F2CC8F;strokeColor=#E07A5F;fontColor=#393C56;fontSize=15;" vertex="1" parent="CdbsHKp1LZGs0OKYdoEk-4">
          <mxGeometry x="5" y="300" width="10" height="20" as="geometry" />
        </mxCell>
        <mxCell id="CdbsHKp1LZGs0OKYdoEk-41" value="&lt;span style=&quot;color: rgba(0, 0, 0, 0); font-family: monospace; text-align: start;&quot;&gt;%3CmxGraphModel%3E%3Croot%3E%3CmxCell%20id%3D%220%22%2F%3E%3CmxCell%20id%3D%221%22%20parent%3D%220%22%2F%3E%3CmxCell%20id%3D%222%22%20value%3D%22dispatch%22%20style%3D%22html%3D1%3BverticalAlign%3Dbottom%3BendArrow%3Dblock%3BedgeStyle%3DelbowEdgeStyle%3Belbow%3Dvertical%3Bcurved%3D0%3Brounded%3D0%3B%22%20edge%3D%221%22%20parent%3D%221%22%3E%3CmxGeometry%20relative%3D%221%22%20as%3D%22geometry%22%3E%3CmxPoint%20x%3D%2295%22%20y%3D%22120%22%20as%3D%22sourcePoint%22%2F%3E%3CArray%20as%3D%22points%22%3E%3CmxPoint%20x%3D%22180%22%20y%3D%22120%22%2F%3E%3C%2FArray%3E%3CmxPoint%20x%3D%22295%22%20y%3D%22120%22%20as%3D%22targetPoint%22%2F%3E%3C%2FmxGeometry%3E%3C%2FmxCell%3E%3C%2Froot%3E%3C%2FmxGraphModel%3E&lt;/span&gt;" style="html=1;points=[];perimeter=orthogonalPerimeter;outlineConnect=0;targetShapes=umlLifeline;portConstraint=eastwest;newEdgeStyle={&quot;edgeStyle&quot;:&quot;elbowEdgeStyle&quot;,&quot;elbow&quot;:&quot;vertical&quot;,&quot;curved&quot;:0,&quot;rounded&quot;:0};labelBackgroundColor=none;fillColor=#F2CC8F;strokeColor=#E07A5F;fontColor=#393C56;fontSize=15;" vertex="1" parent="CdbsHKp1LZGs0OKYdoEk-4">
          <mxGeometry x="5" y="330" width="10" height="20" as="geometry" />
        </mxCell>
        <mxCell id="CdbsHKp1LZGs0OKYdoEk-57" value="&lt;span style=&quot;color: rgba(0, 0, 0, 0); font-family: monospace; text-align: start;&quot;&gt;%3CmxGraphModel%3E%3Croot%3E%3CmxCell%20id%3D%220%22%2F%3E%3CmxCell%20id%3D%221%22%20parent%3D%220%22%2F%3E%3CmxCell%20id%3D%222%22%20value%3D%22dispatch%22%20style%3D%22html%3D1%3BverticalAlign%3Dbottom%3BendArrow%3Dblock%3BedgeStyle%3DelbowEdgeStyle%3Belbow%3Dvertical%3Bcurved%3D0%3Brounded%3D0%3B%22%20edge%3D%221%22%20parent%3D%221%22%3E%3CmxGeometry%20relative%3D%221%22%20as%3D%22geometry%22%3E%3CmxPoint%20x%3D%2295%22%20y%3D%22120%22%20as%3D%22sourcePoint%22%2F%3E%3CArray%20as%3D%22points%22%3E%3CmxPoint%20x%3D%22180%22%20y%3D%22120%22%2F%3E%3C%2FArray%3E%3CmxPoint%20x%3D%22295%22%20y%3D%22120%22%20as%3D%22targetPoint%22%2F%3E%3C%2FmxGeometry%3E%3C%2FmxCell%3E%3C%2Froot%3E%3C%2FmxGraphModel%3E&lt;/span&gt;" style="html=1;points=[];perimeter=orthogonalPerimeter;outlineConnect=0;targetShapes=umlLifeline;portConstraint=eastwest;newEdgeStyle={&quot;edgeStyle&quot;:&quot;elbowEdgeStyle&quot;,&quot;elbow&quot;:&quot;vertical&quot;,&quot;curved&quot;:0,&quot;rounded&quot;:0};labelBackgroundColor=none;fillColor=#F2CC8F;strokeColor=#E07A5F;fontColor=#393C56;fontSize=15;" vertex="1" parent="CdbsHKp1LZGs0OKYdoEk-4">
          <mxGeometry x="5" y="490.5" width="10" height="20" as="geometry" />
        </mxCell>
        <mxCell id="CdbsHKp1LZGs0OKYdoEk-59" value="&lt;span style=&quot;color: rgba(0, 0, 0, 0); font-family: monospace; text-align: start;&quot;&gt;%3CmxGraphModel%3E%3Croot%3E%3CmxCell%20id%3D%220%22%2F%3E%3CmxCell%20id%3D%221%22%20parent%3D%220%22%2F%3E%3CmxCell%20id%3D%222%22%20value%3D%22dispatch%22%20style%3D%22html%3D1%3BverticalAlign%3Dbottom%3BendArrow%3Dblock%3BedgeStyle%3DelbowEdgeStyle%3Belbow%3Dvertical%3Bcurved%3D0%3Brounded%3D0%3B%22%20edge%3D%221%22%20parent%3D%221%22%3E%3CmxGeometry%20relative%3D%221%22%20as%3D%22geometry%22%3E%3CmxPoint%20x%3D%2295%22%20y%3D%22120%22%20as%3D%22sourcePoint%22%2F%3E%3CArray%20as%3D%22points%22%3E%3CmxPoint%20x%3D%22180%22%20y%3D%22120%22%2F%3E%3C%2FArray%3E%3CmxPoint%20x%3D%22295%22%20y%3D%22120%22%20as%3D%22targetPoint%22%2F%3E%3C%2FmxGeometry%3E%3C%2FmxCell%3E%3C%2Froot%3E%3C%2FmxGraphModel%3E&lt;/span&gt;" style="html=1;points=[];perimeter=orthogonalPerimeter;outlineConnect=0;targetShapes=umlLifeline;portConstraint=eastwest;newEdgeStyle={&quot;edgeStyle&quot;:&quot;elbowEdgeStyle&quot;,&quot;elbow&quot;:&quot;vertical&quot;,&quot;curved&quot;:0,&quot;rounded&quot;:0};labelBackgroundColor=none;fillColor=#F2CC8F;strokeColor=#E07A5F;fontColor=#393C56;fontSize=15;" vertex="1" parent="CdbsHKp1LZGs0OKYdoEk-4">
          <mxGeometry x="5" y="521" width="10" height="20" as="geometry" />
        </mxCell>
        <mxCell id="CdbsHKp1LZGs0OKYdoEk-64" value="&lt;span style=&quot;color: rgba(0, 0, 0, 0); font-family: monospace; text-align: start;&quot;&gt;%3CmxGraphModel%3E%3Croot%3E%3CmxCell%20id%3D%220%22%2F%3E%3CmxCell%20id%3D%221%22%20parent%3D%220%22%2F%3E%3CmxCell%20id%3D%222%22%20value%3D%22dispatch%22%20style%3D%22html%3D1%3BverticalAlign%3Dbottom%3BendArrow%3Dblock%3BedgeStyle%3DelbowEdgeStyle%3Belbow%3Dvertical%3Bcurved%3D0%3Brounded%3D0%3B%22%20edge%3D%221%22%20parent%3D%221%22%3E%3CmxGeometry%20relative%3D%221%22%20as%3D%22geometry%22%3E%3CmxPoint%20x%3D%2295%22%20y%3D%22120%22%20as%3D%22sourcePoint%22%2F%3E%3CArray%20as%3D%22points%22%3E%3CmxPoint%20x%3D%22180%22%20y%3D%22120%22%2F%3E%3C%2FArray%3E%3CmxPoint%20x%3D%22295%22%20y%3D%22120%22%20as%3D%22targetPoint%22%2F%3E%3C%2FmxGeometry%3E%3C%2FmxCell%3E%3C%2Froot%3E%3C%2FmxGraphModel%3E&lt;/span&gt;" style="html=1;points=[];perimeter=orthogonalPerimeter;outlineConnect=0;targetShapes=umlLifeline;portConstraint=eastwest;newEdgeStyle={&quot;edgeStyle&quot;:&quot;elbowEdgeStyle&quot;,&quot;elbow&quot;:&quot;vertical&quot;,&quot;curved&quot;:0,&quot;rounded&quot;:0};labelBackgroundColor=none;fillColor=#F2CC8F;strokeColor=#E07A5F;fontColor=#393C56;fontSize=15;" vertex="1" parent="CdbsHKp1LZGs0OKYdoEk-4">
          <mxGeometry x="5" y="570" width="10" height="20" as="geometry" />
        </mxCell>
        <mxCell id="CdbsHKp1LZGs0OKYdoEk-78" value="&lt;span style=&quot;color: rgba(0, 0, 0, 0); font-family: monospace; text-align: start;&quot;&gt;%3CmxGraphModel%3E%3Croot%3E%3CmxCell%20id%3D%220%22%2F%3E%3CmxCell%20id%3D%221%22%20parent%3D%220%22%2F%3E%3CmxCell%20id%3D%222%22%20value%3D%22dispatch%22%20style%3D%22html%3D1%3BverticalAlign%3Dbottom%3BendArrow%3Dblock%3BedgeStyle%3DelbowEdgeStyle%3Belbow%3Dvertical%3Bcurved%3D0%3Brounded%3D0%3B%22%20edge%3D%221%22%20parent%3D%221%22%3E%3CmxGeometry%20relative%3D%221%22%20as%3D%22geometry%22%3E%3CmxPoint%20x%3D%2295%22%20y%3D%22120%22%20as%3D%22sourcePoint%22%2F%3E%3CArray%20as%3D%22points%22%3E%3CmxPoint%20x%3D%22180%22%20y%3D%22120%22%2F%3E%3C%2FArray%3E%3CmxPoint%20x%3D%22295%22%20y%3D%22120%22%20as%3D%22targetPoint%22%2F%3E%3C%2FmxGeometry%3E%3C%2FmxCell%3E%3C%2Froot%3E%3C%2FmxGraphModel%3E&lt;/span&gt;" style="html=1;points=[];perimeter=orthogonalPerimeter;outlineConnect=0;targetShapes=umlLifeline;portConstraint=eastwest;newEdgeStyle={&quot;edgeStyle&quot;:&quot;elbowEdgeStyle&quot;,&quot;elbow&quot;:&quot;vertical&quot;,&quot;curved&quot;:0,&quot;rounded&quot;:0};labelBackgroundColor=none;fillColor=#F2CC8F;strokeColor=#E07A5F;fontColor=#393C56;fontSize=15;" vertex="1" parent="CdbsHKp1LZGs0OKYdoEk-4">
          <mxGeometry x="5" y="740" width="10" height="20" as="geometry" />
        </mxCell>
        <mxCell id="CdbsHKp1LZGs0OKYdoEk-8" value="" style="shape=umlLifeline;perimeter=lifelinePerimeter;whiteSpace=wrap;html=1;container=1;dropTarget=0;collapsible=0;recursiveResize=0;outlineConnect=0;portConstraint=eastwest;newEdgeStyle={&quot;curved&quot;:0,&quot;rounded&quot;:0};participant=umlBoundary;labelBackgroundColor=none;fillColor=#F2CC8F;strokeColor=#E07A5F;fontColor=#393C56;fontSize=15;" vertex="1" parent="1">
          <mxGeometry x="329" y="50" width="50" height="910" as="geometry" />
        </mxCell>
        <mxCell id="CdbsHKp1LZGs0OKYdoEk-9" value="&lt;span style=&quot;color: rgba(0, 0, 0, 0); font-family: monospace; text-align: start;&quot;&gt;%3CmxGraphModel%3E%3Croot%3E%3CmxCell%20id%3D%220%22%2F%3E%3CmxCell%20id%3D%221%22%20parent%3D%220%22%2F%3E%3CmxCell%20id%3D%222%22%20value%3D%22dispatch%22%20style%3D%22html%3D1%3BverticalAlign%3Dbottom%3BendArrow%3Dblock%3BedgeStyle%3DelbowEdgeStyle%3Belbow%3Dvertical%3Bcurved%3D0%3Brounded%3D0%3B%22%20edge%3D%221%22%20parent%3D%221%22%3E%3CmxGeometry%20relative%3D%221%22%20as%3D%22geometry%22%3E%3CmxPoint%20x%3D%2295%22%20y%3D%22120%22%20as%3D%22sourcePoint%22%2F%3E%3CArray%20as%3D%22points%22%3E%3CmxPoint%20x%3D%22180%22%20y%3D%22120%22%2F%3E%3C%2FArray%3E%3CmxPoint%20x%3D%22295%22%20y%3D%22120%22%20as%3D%22targetPoint%22%2F%3E%3C%2FmxGeometry%3E%3C%2FmxCell%3E%3C%2Froot%3E%3C%2FmxGraphModel%3E&lt;/span&gt;" style="html=1;points=[];perimeter=orthogonalPerimeter;outlineConnect=0;targetShapes=umlLifeline;portConstraint=eastwest;newEdgeStyle={&quot;edgeStyle&quot;:&quot;elbowEdgeStyle&quot;,&quot;elbow&quot;:&quot;vertical&quot;,&quot;curved&quot;:0,&quot;rounded&quot;:0};labelBackgroundColor=none;fillColor=#F2CC8F;strokeColor=#E07A5F;fontColor=#393C56;fontSize=15;" vertex="1" parent="CdbsHKp1LZGs0OKYdoEk-8">
          <mxGeometry x="20" y="90" width="10" height="80" as="geometry" />
        </mxCell>
        <mxCell id="CdbsHKp1LZGs0OKYdoEk-10" value="&lt;span style=&quot;color: rgba(0, 0, 0, 0); font-family: monospace; text-align: start;&quot;&gt;%3CmxGraphModel%3E%3Croot%3E%3CmxCell%20id%3D%220%22%2F%3E%3CmxCell%20id%3D%221%22%20parent%3D%220%22%2F%3E%3CmxCell%20id%3D%222%22%20value%3D%22dispatch%22%20style%3D%22html%3D1%3BverticalAlign%3Dbottom%3BendArrow%3Dblock%3BedgeStyle%3DelbowEdgeStyle%3Belbow%3Dvertical%3Bcurved%3D0%3Brounded%3D0%3B%22%20edge%3D%221%22%20parent%3D%221%22%3E%3CmxGeometry%20relative%3D%221%22%20as%3D%22geometry%22%3E%3CmxPoint%20x%3D%2295%22%20y%3D%22120%22%20as%3D%22sourcePoint%22%2F%3E%3CArray%20as%3D%22points%22%3E%3CmxPoint%20x%3D%22180%22%20y%3D%22120%22%2F%3E%3C%2FArray%3E%3CmxPoint%20x%3D%22295%22%20y%3D%22120%22%20as%3D%22targetPoint%22%2F%3E%3C%2FmxGeometry%3E%3C%2FmxCell%3E%3C%2Froot%3E%3C%2FmxGraphModel%3E&lt;/span&gt;" style="html=1;points=[];perimeter=orthogonalPerimeter;outlineConnect=0;targetShapes=umlLifeline;portConstraint=eastwest;newEdgeStyle={&quot;edgeStyle&quot;:&quot;elbowEdgeStyle&quot;,&quot;elbow&quot;:&quot;vertical&quot;,&quot;curved&quot;:0,&quot;rounded&quot;:0};labelBackgroundColor=none;fillColor=#F2CC8F;strokeColor=#E07A5F;fontColor=#393C56;fontSize=15;" vertex="1" parent="CdbsHKp1LZGs0OKYdoEk-8">
          <mxGeometry x="20" y="190" width="10" height="50" as="geometry" />
        </mxCell>
        <mxCell id="CdbsHKp1LZGs0OKYdoEk-39" value="&lt;span style=&quot;color: rgba(0, 0, 0, 0); font-family: monospace; text-align: start;&quot;&gt;%3CmxGraphModel%3E%3Croot%3E%3CmxCell%20id%3D%220%22%2F%3E%3CmxCell%20id%3D%221%22%20parent%3D%220%22%2F%3E%3CmxCell%20id%3D%222%22%20value%3D%22dispatch%22%20style%3D%22html%3D1%3BverticalAlign%3Dbottom%3BendArrow%3Dblock%3BedgeStyle%3DelbowEdgeStyle%3Belbow%3Dvertical%3Bcurved%3D0%3Brounded%3D0%3B%22%20edge%3D%221%22%20parent%3D%221%22%3E%3CmxGeometry%20relative%3D%221%22%20as%3D%22geometry%22%3E%3CmxPoint%20x%3D%2295%22%20y%3D%22120%22%20as%3D%22sourcePoint%22%2F%3E%3CArray%20as%3D%22points%22%3E%3CmxPoint%20x%3D%22180%22%20y%3D%22120%22%2F%3E%3C%2FArray%3E%3CmxPoint%20x%3D%22295%22%20y%3D%22120%22%20as%3D%22targetPoint%22%2F%3E%3C%2FmxGeometry%3E%3C%2FmxCell%3E%3C%2Froot%3E%3C%2FmxGraphModel%3E&lt;/span&gt;" style="html=1;points=[];perimeter=orthogonalPerimeter;outlineConnect=0;targetShapes=umlLifeline;portConstraint=eastwest;newEdgeStyle={&quot;edgeStyle&quot;:&quot;elbowEdgeStyle&quot;,&quot;elbow&quot;:&quot;vertical&quot;,&quot;curved&quot;:0,&quot;rounded&quot;:0};labelBackgroundColor=none;fillColor=#F2CC8F;strokeColor=#E07A5F;fontColor=#393C56;fontSize=15;" vertex="1" parent="CdbsHKp1LZGs0OKYdoEk-8">
          <mxGeometry x="20" y="300" width="10" height="20" as="geometry" />
        </mxCell>
        <mxCell id="CdbsHKp1LZGs0OKYdoEk-42" value="&lt;span style=&quot;color: rgba(0, 0, 0, 0); font-family: monospace; text-align: start;&quot;&gt;%3CmxGraphModel%3E%3Croot%3E%3CmxCell%20id%3D%220%22%2F%3E%3CmxCell%20id%3D%221%22%20parent%3D%220%22%2F%3E%3CmxCell%20id%3D%222%22%20value%3D%22dispatch%22%20style%3D%22html%3D1%3BverticalAlign%3Dbottom%3BendArrow%3Dblock%3BedgeStyle%3DelbowEdgeStyle%3Belbow%3Dvertical%3Bcurved%3D0%3Brounded%3D0%3B%22%20edge%3D%221%22%20parent%3D%221%22%3E%3CmxGeometry%20relative%3D%221%22%20as%3D%22geometry%22%3E%3CmxPoint%20x%3D%2295%22%20y%3D%22120%22%20as%3D%22sourcePoint%22%2F%3E%3CArray%20as%3D%22points%22%3E%3CmxPoint%20x%3D%22180%22%20y%3D%22120%22%2F%3E%3C%2FArray%3E%3CmxPoint%20x%3D%22295%22%20y%3D%22120%22%20as%3D%22targetPoint%22%2F%3E%3C%2FmxGeometry%3E%3C%2FmxCell%3E%3C%2Froot%3E%3C%2FmxGraphModel%3E&lt;/span&gt;" style="html=1;points=[];perimeter=orthogonalPerimeter;outlineConnect=0;targetShapes=umlLifeline;portConstraint=eastwest;newEdgeStyle={&quot;edgeStyle&quot;:&quot;elbowEdgeStyle&quot;,&quot;elbow&quot;:&quot;vertical&quot;,&quot;curved&quot;:0,&quot;rounded&quot;:0};labelBackgroundColor=none;fillColor=#F2CC8F;strokeColor=#E07A5F;fontColor=#393C56;fontSize=15;" vertex="1" parent="CdbsHKp1LZGs0OKYdoEk-8">
          <mxGeometry x="20" y="330" width="10" height="40" as="geometry" />
        </mxCell>
        <mxCell id="CdbsHKp1LZGs0OKYdoEk-60" value="&lt;span style=&quot;color: rgba(0, 0, 0, 0); font-family: monospace; text-align: start;&quot;&gt;%3CmxGraphModel%3E%3Croot%3E%3CmxCell%20id%3D%220%22%2F%3E%3CmxCell%20id%3D%221%22%20parent%3D%220%22%2F%3E%3CmxCell%20id%3D%222%22%20value%3D%22dispatch%22%20style%3D%22html%3D1%3BverticalAlign%3Dbottom%3BendArrow%3Dblock%3BedgeStyle%3DelbowEdgeStyle%3Belbow%3Dvertical%3Bcurved%3D0%3Brounded%3D0%3B%22%20edge%3D%221%22%20parent%3D%221%22%3E%3CmxGeometry%20relative%3D%221%22%20as%3D%22geometry%22%3E%3CmxPoint%20x%3D%2295%22%20y%3D%22120%22%20as%3D%22sourcePoint%22%2F%3E%3CArray%20as%3D%22points%22%3E%3CmxPoint%20x%3D%22180%22%20y%3D%22120%22%2F%3E%3C%2FArray%3E%3CmxPoint%20x%3D%22295%22%20y%3D%22120%22%20as%3D%22targetPoint%22%2F%3E%3C%2FmxGeometry%3E%3C%2FmxCell%3E%3C%2Froot%3E%3C%2FmxGraphModel%3E&lt;/span&gt;" style="html=1;points=[];perimeter=orthogonalPerimeter;outlineConnect=0;targetShapes=umlLifeline;portConstraint=eastwest;newEdgeStyle={&quot;edgeStyle&quot;:&quot;elbowEdgeStyle&quot;,&quot;elbow&quot;:&quot;vertical&quot;,&quot;curved&quot;:0,&quot;rounded&quot;:0};labelBackgroundColor=none;fillColor=#F2CC8F;strokeColor=#E07A5F;fontColor=#393C56;fontSize=15;" vertex="1" parent="CdbsHKp1LZGs0OKYdoEk-8">
          <mxGeometry x="20" y="519" width="10" height="91" as="geometry" />
        </mxCell>
        <mxCell id="CdbsHKp1LZGs0OKYdoEk-73" value="&lt;span style=&quot;color: rgba(0, 0, 0, 0); font-family: monospace; text-align: start;&quot;&gt;%3CmxGraphModel%3E%3Croot%3E%3CmxCell%20id%3D%220%22%2F%3E%3CmxCell%20id%3D%221%22%20parent%3D%220%22%2F%3E%3CmxCell%20id%3D%222%22%20value%3D%22dispatch%22%20style%3D%22html%3D1%3BverticalAlign%3Dbottom%3BendArrow%3Dblock%3BedgeStyle%3DelbowEdgeStyle%3Belbow%3Dvertical%3Bcurved%3D0%3Brounded%3D0%3B%22%20edge%3D%221%22%20parent%3D%221%22%3E%3CmxGeometry%20relative%3D%221%22%20as%3D%22geometry%22%3E%3CmxPoint%20x%3D%2295%22%20y%3D%22120%22%20as%3D%22sourcePoint%22%2F%3E%3CArray%20as%3D%22points%22%3E%3CmxPoint%20x%3D%22180%22%20y%3D%22120%22%2F%3E%3C%2FArray%3E%3CmxPoint%20x%3D%22295%22%20y%3D%22120%22%20as%3D%22targetPoint%22%2F%3E%3C%2FmxGeometry%3E%3C%2FmxCell%3E%3C%2Froot%3E%3C%2FmxGraphModel%3E&lt;/span&gt;" style="html=1;points=[];perimeter=orthogonalPerimeter;outlineConnect=0;targetShapes=umlLifeline;portConstraint=eastwest;newEdgeStyle={&quot;edgeStyle&quot;:&quot;elbowEdgeStyle&quot;,&quot;elbow&quot;:&quot;vertical&quot;,&quot;curved&quot;:0,&quot;rounded&quot;:0};labelBackgroundColor=none;fillColor=#F2CC8F;strokeColor=#E07A5F;fontColor=#393C56;fontSize=15;" vertex="1" parent="CdbsHKp1LZGs0OKYdoEk-8">
          <mxGeometry x="20" y="660" width="10" height="20" as="geometry" />
        </mxCell>
        <mxCell id="CdbsHKp1LZGs0OKYdoEk-79" value="&lt;span style=&quot;color: rgba(0, 0, 0, 0); font-family: monospace; text-align: start;&quot;&gt;%3CmxGraphModel%3E%3Croot%3E%3CmxCell%20id%3D%220%22%2F%3E%3CmxCell%20id%3D%221%22%20parent%3D%220%22%2F%3E%3CmxCell%20id%3D%222%22%20value%3D%22dispatch%22%20style%3D%22html%3D1%3BverticalAlign%3Dbottom%3BendArrow%3Dblock%3BedgeStyle%3DelbowEdgeStyle%3Belbow%3Dvertical%3Bcurved%3D0%3Brounded%3D0%3B%22%20edge%3D%221%22%20parent%3D%221%22%3E%3CmxGeometry%20relative%3D%221%22%20as%3D%22geometry%22%3E%3CmxPoint%20x%3D%2295%22%20y%3D%22120%22%20as%3D%22sourcePoint%22%2F%3E%3CArray%20as%3D%22points%22%3E%3CmxPoint%20x%3D%22180%22%20y%3D%22120%22%2F%3E%3C%2FArray%3E%3CmxPoint%20x%3D%22295%22%20y%3D%22120%22%20as%3D%22targetPoint%22%2F%3E%3C%2FmxGeometry%3E%3C%2FmxCell%3E%3C%2Froot%3E%3C%2FmxGraphModel%3E&lt;/span&gt;" style="html=1;points=[];perimeter=orthogonalPerimeter;outlineConnect=0;targetShapes=umlLifeline;portConstraint=eastwest;newEdgeStyle={&quot;edgeStyle&quot;:&quot;elbowEdgeStyle&quot;,&quot;elbow&quot;:&quot;vertical&quot;,&quot;curved&quot;:0,&quot;rounded&quot;:0};labelBackgroundColor=none;fillColor=#F2CC8F;strokeColor=#E07A5F;fontColor=#393C56;fontSize=15;" vertex="1" parent="CdbsHKp1LZGs0OKYdoEk-8">
          <mxGeometry x="20" y="740" width="10" height="150" as="geometry" />
        </mxCell>
        <mxCell id="CdbsHKp1LZGs0OKYdoEk-14" value="" style="shape=umlLifeline;perimeter=lifelinePerimeter;whiteSpace=wrap;html=1;container=1;dropTarget=0;collapsible=0;recursiveResize=0;outlineConnect=0;portConstraint=eastwest;newEdgeStyle={&quot;curved&quot;:0,&quot;rounded&quot;:0};participant=umlEntity;labelBackgroundColor=none;fillColor=#F2CC8F;strokeColor=#E07A5F;fontColor=#393C56;fontSize=15;" vertex="1" parent="1">
          <mxGeometry x="744" y="50" width="40" height="910" as="geometry" />
        </mxCell>
        <mxCell id="CdbsHKp1LZGs0OKYdoEk-30" value="&lt;span style=&quot;color: rgba(0, 0, 0, 0); font-family: monospace; text-align: start;&quot;&gt;%3CmxGraphModel%3E%3Croot%3E%3CmxCell%20id%3D%220%22%2F%3E%3CmxCell%20id%3D%221%22%20parent%3D%220%22%2F%3E%3CmxCell%20id%3D%222%22%20value%3D%22dispatch%22%20style%3D%22html%3D1%3BverticalAlign%3Dbottom%3BendArrow%3Dblock%3BedgeStyle%3DelbowEdgeStyle%3Belbow%3Dvertical%3Bcurved%3D0%3Brounded%3D0%3B%22%20edge%3D%221%22%20parent%3D%221%22%3E%3CmxGeometry%20relative%3D%221%22%20as%3D%22geometry%22%3E%3CmxPoint%20x%3D%2295%22%20y%3D%22120%22%20as%3D%22sourcePoint%22%2F%3E%3CArray%20as%3D%22points%22%3E%3CmxPoint%20x%3D%22180%22%20y%3D%22120%22%2F%3E%3C%2FArray%3E%3CmxPoint%20x%3D%22295%22%20y%3D%22120%22%20as%3D%22targetPoint%22%2F%3E%3C%2FmxGeometry%3E%3C%2FmxCell%3E%3C%2Froot%3E%3C%2FmxGraphModel%3E&lt;/span&gt;" style="html=1;points=[];perimeter=orthogonalPerimeter;outlineConnect=0;targetShapes=umlLifeline;portConstraint=eastwest;newEdgeStyle={&quot;edgeStyle&quot;:&quot;elbowEdgeStyle&quot;,&quot;elbow&quot;:&quot;vertical&quot;,&quot;curved&quot;:0,&quot;rounded&quot;:0};labelBackgroundColor=none;fillColor=#F2CC8F;strokeColor=#E07A5F;fontColor=#393C56;fontSize=15;" vertex="1" parent="CdbsHKp1LZGs0OKYdoEk-14">
          <mxGeometry x="15" y="130" width="10" height="20" as="geometry" />
        </mxCell>
        <mxCell id="CdbsHKp1LZGs0OKYdoEk-46" value="&lt;span style=&quot;color: rgba(0, 0, 0, 0); font-family: monospace; text-align: start;&quot;&gt;%3CmxGraphModel%3E%3Croot%3E%3CmxCell%20id%3D%220%22%2F%3E%3CmxCell%20id%3D%221%22%20parent%3D%220%22%2F%3E%3CmxCell%20id%3D%222%22%20value%3D%22dispatch%22%20style%3D%22html%3D1%3BverticalAlign%3Dbottom%3BendArrow%3Dblock%3BedgeStyle%3DelbowEdgeStyle%3Belbow%3Dvertical%3Bcurved%3D0%3Brounded%3D0%3B%22%20edge%3D%221%22%20parent%3D%221%22%3E%3CmxGeometry%20relative%3D%221%22%20as%3D%22geometry%22%3E%3CmxPoint%20x%3D%2295%22%20y%3D%22120%22%20as%3D%22sourcePoint%22%2F%3E%3CArray%20as%3D%22points%22%3E%3CmxPoint%20x%3D%22180%22%20y%3D%22120%22%2F%3E%3C%2FArray%3E%3CmxPoint%20x%3D%22295%22%20y%3D%22120%22%20as%3D%22targetPoint%22%2F%3E%3C%2FmxGeometry%3E%3C%2FmxCell%3E%3C%2Froot%3E%3C%2FmxGraphModel%3E&lt;/span&gt;" style="html=1;points=[];perimeter=orthogonalPerimeter;outlineConnect=0;targetShapes=umlLifeline;portConstraint=eastwest;newEdgeStyle={&quot;edgeStyle&quot;:&quot;elbowEdgeStyle&quot;,&quot;elbow&quot;:&quot;vertical&quot;,&quot;curved&quot;:0,&quot;rounded&quot;:0};labelBackgroundColor=none;fillColor=#F2CC8F;strokeColor=#E07A5F;fontColor=#393C56;fontSize=15;" vertex="1" parent="CdbsHKp1LZGs0OKYdoEk-14">
          <mxGeometry x="15" y="370" width="10" height="20" as="geometry" />
        </mxCell>
        <mxCell id="CdbsHKp1LZGs0OKYdoEk-49" value="&lt;span style=&quot;color: rgba(0, 0, 0, 0); font-family: monospace; text-align: start;&quot;&gt;%3CmxGraphModel%3E%3Croot%3E%3CmxCell%20id%3D%220%22%2F%3E%3CmxCell%20id%3D%221%22%20parent%3D%220%22%2F%3E%3CmxCell%20id%3D%222%22%20value%3D%22dispatch%22%20style%3D%22html%3D1%3BverticalAlign%3Dbottom%3BendArrow%3Dblock%3BedgeStyle%3DelbowEdgeStyle%3Belbow%3Dvertical%3Bcurved%3D0%3Brounded%3D0%3B%22%20edge%3D%221%22%20parent%3D%221%22%3E%3CmxGeometry%20relative%3D%221%22%20as%3D%22geometry%22%3E%3CmxPoint%20x%3D%2295%22%20y%3D%22120%22%20as%3D%22sourcePoint%22%2F%3E%3CArray%20as%3D%22points%22%3E%3CmxPoint%20x%3D%22180%22%20y%3D%22120%22%2F%3E%3C%2FArray%3E%3CmxPoint%20x%3D%22295%22%20y%3D%22120%22%20as%3D%22targetPoint%22%2F%3E%3C%2FmxGeometry%3E%3C%2FmxCell%3E%3C%2Froot%3E%3C%2FmxGraphModel%3E&lt;/span&gt;" style="html=1;points=[];perimeter=orthogonalPerimeter;outlineConnect=0;targetShapes=umlLifeline;portConstraint=eastwest;newEdgeStyle={&quot;edgeStyle&quot;:&quot;elbowEdgeStyle&quot;,&quot;elbow&quot;:&quot;vertical&quot;,&quot;curved&quot;:0,&quot;rounded&quot;:0};labelBackgroundColor=none;fillColor=#F2CC8F;strokeColor=#E07A5F;fontColor=#393C56;fontSize=15;" vertex="1" parent="CdbsHKp1LZGs0OKYdoEk-14">
          <mxGeometry x="15" y="400" width="10" height="20" as="geometry" />
        </mxCell>
        <mxCell id="CdbsHKp1LZGs0OKYdoEk-68" value="&lt;span style=&quot;color: rgba(0, 0, 0, 0); font-family: monospace; text-align: start;&quot;&gt;%3CmxGraphModel%3E%3Croot%3E%3CmxCell%20id%3D%220%22%2F%3E%3CmxCell%20id%3D%221%22%20parent%3D%220%22%2F%3E%3CmxCell%20id%3D%222%22%20value%3D%22dispatch%22%20style%3D%22html%3D1%3BverticalAlign%3Dbottom%3BendArrow%3Dblock%3BedgeStyle%3DelbowEdgeStyle%3Belbow%3Dvertical%3Bcurved%3D0%3Brounded%3D0%3B%22%20edge%3D%221%22%20parent%3D%221%22%3E%3CmxGeometry%20relative%3D%221%22%20as%3D%22geometry%22%3E%3CmxPoint%20x%3D%2295%22%20y%3D%22120%22%20as%3D%22sourcePoint%22%2F%3E%3CArray%20as%3D%22points%22%3E%3CmxPoint%20x%3D%22180%22%20y%3D%22120%22%2F%3E%3C%2FArray%3E%3CmxPoint%20x%3D%22295%22%20y%3D%22120%22%20as%3D%22targetPoint%22%2F%3E%3C%2FmxGeometry%3E%3C%2FmxCell%3E%3C%2Froot%3E%3C%2FmxGraphModel%3E&lt;/span&gt;" style="html=1;points=[];perimeter=orthogonalPerimeter;outlineConnect=0;targetShapes=umlLifeline;portConstraint=eastwest;newEdgeStyle={&quot;edgeStyle&quot;:&quot;elbowEdgeStyle&quot;,&quot;elbow&quot;:&quot;vertical&quot;,&quot;curved&quot;:0,&quot;rounded&quot;:0};labelBackgroundColor=none;fillColor=#F2CC8F;strokeColor=#E07A5F;fontColor=#393C56;fontSize=15;" vertex="1" parent="CdbsHKp1LZGs0OKYdoEk-14">
          <mxGeometry x="15" y="610" width="10" height="20" as="geometry" />
        </mxCell>
        <mxCell id="CdbsHKp1LZGs0OKYdoEk-71" value="&lt;span style=&quot;color: rgba(0, 0, 0, 0); font-family: monospace; text-align: start;&quot;&gt;%3CmxGraphModel%3E%3Croot%3E%3CmxCell%20id%3D%220%22%2F%3E%3CmxCell%20id%3D%221%22%20parent%3D%220%22%2F%3E%3CmxCell%20id%3D%222%22%20value%3D%22dispatch%22%20style%3D%22html%3D1%3BverticalAlign%3Dbottom%3BendArrow%3Dblock%3BedgeStyle%3DelbowEdgeStyle%3Belbow%3Dvertical%3Bcurved%3D0%3Brounded%3D0%3B%22%20edge%3D%221%22%20parent%3D%221%22%3E%3CmxGeometry%20relative%3D%221%22%20as%3D%22geometry%22%3E%3CmxPoint%20x%3D%2295%22%20y%3D%22120%22%20as%3D%22sourcePoint%22%2F%3E%3CArray%20as%3D%22points%22%3E%3CmxPoint%20x%3D%22180%22%20y%3D%22120%22%2F%3E%3C%2FArray%3E%3CmxPoint%20x%3D%22295%22%20y%3D%22120%22%20as%3D%22targetPoint%22%2F%3E%3C%2FmxGeometry%3E%3C%2FmxCell%3E%3C%2Froot%3E%3C%2FmxGraphModel%3E&lt;/span&gt;" style="html=1;points=[];perimeter=orthogonalPerimeter;outlineConnect=0;targetShapes=umlLifeline;portConstraint=eastwest;newEdgeStyle={&quot;edgeStyle&quot;:&quot;elbowEdgeStyle&quot;,&quot;elbow&quot;:&quot;vertical&quot;,&quot;curved&quot;:0,&quot;rounded&quot;:0};labelBackgroundColor=none;fillColor=#F2CC8F;strokeColor=#E07A5F;fontColor=#393C56;fontSize=15;" vertex="1" parent="CdbsHKp1LZGs0OKYdoEk-14">
          <mxGeometry x="15" y="640" width="10" height="20" as="geometry" />
        </mxCell>
        <mxCell id="CdbsHKp1LZGs0OKYdoEk-83" value="&lt;span style=&quot;color: rgba(0, 0, 0, 0); font-family: monospace; text-align: start;&quot;&gt;%3CmxGraphModel%3E%3Croot%3E%3CmxCell%20id%3D%220%22%2F%3E%3CmxCell%20id%3D%221%22%20parent%3D%220%22%2F%3E%3CmxCell%20id%3D%222%22%20value%3D%22dispatch%22%20style%3D%22html%3D1%3BverticalAlign%3Dbottom%3BendArrow%3Dblock%3BedgeStyle%3DelbowEdgeStyle%3Belbow%3Dvertical%3Bcurved%3D0%3Brounded%3D0%3B%22%20edge%3D%221%22%20parent%3D%221%22%3E%3CmxGeometry%20relative%3D%221%22%20as%3D%22geometry%22%3E%3CmxPoint%20x%3D%2295%22%20y%3D%22120%22%20as%3D%22sourcePoint%22%2F%3E%3CArray%20as%3D%22points%22%3E%3CmxPoint%20x%3D%22180%22%20y%3D%22120%22%2F%3E%3C%2FArray%3E%3CmxPoint%20x%3D%22295%22%20y%3D%22120%22%20as%3D%22targetPoint%22%2F%3E%3C%2FmxGeometry%3E%3C%2FmxCell%3E%3C%2Froot%3E%3C%2FmxGraphModel%3E&lt;/span&gt;" style="html=1;points=[];perimeter=orthogonalPerimeter;outlineConnect=0;targetShapes=umlLifeline;portConstraint=eastwest;newEdgeStyle={&quot;edgeStyle&quot;:&quot;elbowEdgeStyle&quot;,&quot;elbow&quot;:&quot;vertical&quot;,&quot;curved&quot;:0,&quot;rounded&quot;:0};labelBackgroundColor=none;fillColor=#F2CC8F;strokeColor=#E07A5F;fontColor=#393C56;fontSize=15;" vertex="1" parent="CdbsHKp1LZGs0OKYdoEk-14">
          <mxGeometry x="15" y="780" width="10" height="20" as="geometry" />
        </mxCell>
        <mxCell id="CdbsHKp1LZGs0OKYdoEk-16" value="" style="shape=umlLifeline;perimeter=lifelinePerimeter;whiteSpace=wrap;html=1;container=1;dropTarget=0;collapsible=0;recursiveResize=0;outlineConnect=0;portConstraint=eastwest;newEdgeStyle={&quot;curved&quot;:0,&quot;rounded&quot;:0};participant=umlControl;labelBackgroundColor=none;fillColor=#F2CC8F;strokeColor=#E07A5F;fontColor=#393C56;fontSize=15;" vertex="1" parent="1">
          <mxGeometry x="547" y="50" width="40" height="910" as="geometry" />
        </mxCell>
        <mxCell id="CdbsHKp1LZGs0OKYdoEk-28" value="&lt;span style=&quot;color: rgba(0, 0, 0, 0); font-family: monospace; text-align: start;&quot;&gt;%3CmxGraphModel%3E%3Croot%3E%3CmxCell%20id%3D%220%22%2F%3E%3CmxCell%20id%3D%221%22%20parent%3D%220%22%2F%3E%3CmxCell%20id%3D%222%22%20value%3D%22dispatch%22%20style%3D%22html%3D1%3BverticalAlign%3Dbottom%3BendArrow%3Dblock%3BedgeStyle%3DelbowEdgeStyle%3Belbow%3Dvertical%3Bcurved%3D0%3Brounded%3D0%3B%22%20edge%3D%221%22%20parent%3D%221%22%3E%3CmxGeometry%20relative%3D%221%22%20as%3D%22geometry%22%3E%3CmxPoint%20x%3D%2295%22%20y%3D%22120%22%20as%3D%22sourcePoint%22%2F%3E%3CArray%20as%3D%22points%22%3E%3CmxPoint%20x%3D%22180%22%20y%3D%22120%22%2F%3E%3C%2FArray%3E%3CmxPoint%20x%3D%22295%22%20y%3D%22120%22%20as%3D%22targetPoint%22%2F%3E%3C%2FmxGeometry%3E%3C%2FmxCell%3E%3C%2Froot%3E%3C%2FmxGraphModel%3E&lt;/span&gt;" style="html=1;points=[];perimeter=orthogonalPerimeter;outlineConnect=0;targetShapes=umlLifeline;portConstraint=eastwest;newEdgeStyle={&quot;edgeStyle&quot;:&quot;elbowEdgeStyle&quot;,&quot;elbow&quot;:&quot;vertical&quot;,&quot;curved&quot;:0,&quot;rounded&quot;:0};labelBackgroundColor=none;fillColor=#F2CC8F;strokeColor=#E07A5F;fontColor=#393C56;fontSize=15;" vertex="1" parent="CdbsHKp1LZGs0OKYdoEk-16">
          <mxGeometry x="15" y="110" width="10" height="40" as="geometry" />
        </mxCell>
        <mxCell id="CdbsHKp1LZGs0OKYdoEk-44" value="&lt;span style=&quot;color: rgba(0, 0, 0, 0); font-family: monospace; text-align: start;&quot;&gt;%3CmxGraphModel%3E%3Croot%3E%3CmxCell%20id%3D%220%22%2F%3E%3CmxCell%20id%3D%221%22%20parent%3D%220%22%2F%3E%3CmxCell%20id%3D%222%22%20value%3D%22dispatch%22%20style%3D%22html%3D1%3BverticalAlign%3Dbottom%3BendArrow%3Dblock%3BedgeStyle%3DelbowEdgeStyle%3Belbow%3Dvertical%3Bcurved%3D0%3Brounded%3D0%3B%22%20edge%3D%221%22%20parent%3D%221%22%3E%3CmxGeometry%20relative%3D%221%22%20as%3D%22geometry%22%3E%3CmxPoint%20x%3D%2295%22%20y%3D%22120%22%20as%3D%22sourcePoint%22%2F%3E%3CArray%20as%3D%22points%22%3E%3CmxPoint%20x%3D%22180%22%20y%3D%22120%22%2F%3E%3C%2FArray%3E%3CmxPoint%20x%3D%22295%22%20y%3D%22120%22%20as%3D%22targetPoint%22%2F%3E%3C%2FmxGeometry%3E%3C%2FmxCell%3E%3C%2Froot%3E%3C%2FmxGraphModel%3E&lt;/span&gt;" style="html=1;points=[];perimeter=orthogonalPerimeter;outlineConnect=0;targetShapes=umlLifeline;portConstraint=eastwest;newEdgeStyle={&quot;edgeStyle&quot;:&quot;elbowEdgeStyle&quot;,&quot;elbow&quot;:&quot;vertical&quot;,&quot;curved&quot;:0,&quot;rounded&quot;:0};labelBackgroundColor=none;fillColor=#F2CC8F;strokeColor=#E07A5F;fontColor=#393C56;fontSize=15;" vertex="1" parent="CdbsHKp1LZGs0OKYdoEk-16">
          <mxGeometry x="15" y="350" width="10" height="40" as="geometry" />
        </mxCell>
        <mxCell id="CdbsHKp1LZGs0OKYdoEk-48" value="&lt;span style=&quot;color: rgba(0, 0, 0, 0); font-family: monospace; text-align: start;&quot;&gt;%3CmxGraphModel%3E%3Croot%3E%3CmxCell%20id%3D%220%22%2F%3E%3CmxCell%20id%3D%221%22%20parent%3D%220%22%2F%3E%3CmxCell%20id%3D%222%22%20value%3D%22dispatch%22%20style%3D%22html%3D1%3BverticalAlign%3Dbottom%3BendArrow%3Dblock%3BedgeStyle%3DelbowEdgeStyle%3Belbow%3Dvertical%3Bcurved%3D0%3Brounded%3D0%3B%22%20edge%3D%221%22%20parent%3D%221%22%3E%3CmxGeometry%20relative%3D%221%22%20as%3D%22geometry%22%3E%3CmxPoint%20x%3D%2295%22%20y%3D%22120%22%20as%3D%22sourcePoint%22%2F%3E%3CArray%20as%3D%22points%22%3E%3CmxPoint%20x%3D%22180%22%20y%3D%22120%22%2F%3E%3C%2FArray%3E%3CmxPoint%20x%3D%22295%22%20y%3D%22120%22%20as%3D%22targetPoint%22%2F%3E%3C%2FmxGeometry%3E%3C%2FmxCell%3E%3C%2Froot%3E%3C%2FmxGraphModel%3E&lt;/span&gt;" style="html=1;points=[];perimeter=orthogonalPerimeter;outlineConnect=0;targetShapes=umlLifeline;portConstraint=eastwest;newEdgeStyle={&quot;edgeStyle&quot;:&quot;elbowEdgeStyle&quot;,&quot;elbow&quot;:&quot;vertical&quot;,&quot;curved&quot;:0,&quot;rounded&quot;:0};labelBackgroundColor=none;fillColor=#F2CC8F;strokeColor=#E07A5F;fontColor=#393C56;fontSize=15;" vertex="1" parent="CdbsHKp1LZGs0OKYdoEk-16">
          <mxGeometry x="15" y="400" width="10" height="20" as="geometry" />
        </mxCell>
        <mxCell id="CdbsHKp1LZGs0OKYdoEk-66" value="&lt;span style=&quot;color: rgba(0, 0, 0, 0); font-family: monospace; text-align: start;&quot;&gt;%3CmxGraphModel%3E%3Croot%3E%3CmxCell%20id%3D%220%22%2F%3E%3CmxCell%20id%3D%221%22%20parent%3D%220%22%2F%3E%3CmxCell%20id%3D%222%22%20value%3D%22dispatch%22%20style%3D%22html%3D1%3BverticalAlign%3Dbottom%3BendArrow%3Dblock%3BedgeStyle%3DelbowEdgeStyle%3Belbow%3Dvertical%3Bcurved%3D0%3Brounded%3D0%3B%22%20edge%3D%221%22%20parent%3D%221%22%3E%3CmxGeometry%20relative%3D%221%22%20as%3D%22geometry%22%3E%3CmxPoint%20x%3D%2295%22%20y%3D%22120%22%20as%3D%22sourcePoint%22%2F%3E%3CArray%20as%3D%22points%22%3E%3CmxPoint%20x%3D%22180%22%20y%3D%22120%22%2F%3E%3C%2FArray%3E%3CmxPoint%20x%3D%22295%22%20y%3D%22120%22%20as%3D%22targetPoint%22%2F%3E%3C%2FmxGeometry%3E%3C%2FmxCell%3E%3C%2Froot%3E%3C%2FmxGraphModel%3E&lt;/span&gt;" style="html=1;points=[];perimeter=orthogonalPerimeter;outlineConnect=0;targetShapes=umlLifeline;portConstraint=eastwest;newEdgeStyle={&quot;edgeStyle&quot;:&quot;elbowEdgeStyle&quot;,&quot;elbow&quot;:&quot;vertical&quot;,&quot;curved&quot;:0,&quot;rounded&quot;:0};labelBackgroundColor=none;fillColor=#F2CC8F;strokeColor=#E07A5F;fontColor=#393C56;fontSize=15;" vertex="1" parent="CdbsHKp1LZGs0OKYdoEk-16">
          <mxGeometry x="15" y="590" width="10" height="40" as="geometry" />
        </mxCell>
        <mxCell id="CdbsHKp1LZGs0OKYdoEk-70" value="&lt;span style=&quot;color: rgba(0, 0, 0, 0); font-family: monospace; text-align: start;&quot;&gt;%3CmxGraphModel%3E%3Croot%3E%3CmxCell%20id%3D%220%22%2F%3E%3CmxCell%20id%3D%221%22%20parent%3D%220%22%2F%3E%3CmxCell%20id%3D%222%22%20value%3D%22dispatch%22%20style%3D%22html%3D1%3BverticalAlign%3Dbottom%3BendArrow%3Dblock%3BedgeStyle%3DelbowEdgeStyle%3Belbow%3Dvertical%3Bcurved%3D0%3Brounded%3D0%3B%22%20edge%3D%221%22%20parent%3D%221%22%3E%3CmxGeometry%20relative%3D%221%22%20as%3D%22geometry%22%3E%3CmxPoint%20x%3D%2295%22%20y%3D%22120%22%20as%3D%22sourcePoint%22%2F%3E%3CArray%20as%3D%22points%22%3E%3CmxPoint%20x%3D%22180%22%20y%3D%22120%22%2F%3E%3C%2FArray%3E%3CmxPoint%20x%3D%22295%22%20y%3D%22120%22%20as%3D%22targetPoint%22%2F%3E%3C%2FmxGeometry%3E%3C%2FmxCell%3E%3C%2Froot%3E%3C%2FmxGraphModel%3E&lt;/span&gt;" style="html=1;points=[];perimeter=orthogonalPerimeter;outlineConnect=0;targetShapes=umlLifeline;portConstraint=eastwest;newEdgeStyle={&quot;edgeStyle&quot;:&quot;elbowEdgeStyle&quot;,&quot;elbow&quot;:&quot;vertical&quot;,&quot;curved&quot;:0,&quot;rounded&quot;:0};labelBackgroundColor=none;fillColor=#F2CC8F;strokeColor=#E07A5F;fontColor=#393C56;fontSize=15;" vertex="1" parent="CdbsHKp1LZGs0OKYdoEk-16">
          <mxGeometry x="15" y="640" width="10" height="20" as="geometry" />
        </mxCell>
        <mxCell id="CdbsHKp1LZGs0OKYdoEk-81" value="&lt;span style=&quot;color: rgba(0, 0, 0, 0); font-family: monospace; text-align: start;&quot;&gt;%3CmxGraphModel%3E%3Croot%3E%3CmxCell%20id%3D%220%22%2F%3E%3CmxCell%20id%3D%221%22%20parent%3D%220%22%2F%3E%3CmxCell%20id%3D%222%22%20value%3D%22dispatch%22%20style%3D%22html%3D1%3BverticalAlign%3Dbottom%3BendArrow%3Dblock%3BedgeStyle%3DelbowEdgeStyle%3Belbow%3Dvertical%3Bcurved%3D0%3Brounded%3D0%3B%22%20edge%3D%221%22%20parent%3D%221%22%3E%3CmxGeometry%20relative%3D%221%22%20as%3D%22geometry%22%3E%3CmxPoint%20x%3D%2295%22%20y%3D%22120%22%20as%3D%22sourcePoint%22%2F%3E%3CArray%20as%3D%22points%22%3E%3CmxPoint%20x%3D%22180%22%20y%3D%22120%22%2F%3E%3C%2FArray%3E%3CmxPoint%20x%3D%22295%22%20y%3D%22120%22%20as%3D%22targetPoint%22%2F%3E%3C%2FmxGeometry%3E%3C%2FmxCell%3E%3C%2Froot%3E%3C%2FmxGraphModel%3E&lt;/span&gt;" style="html=1;points=[];perimeter=orthogonalPerimeter;outlineConnect=0;targetShapes=umlLifeline;portConstraint=eastwest;newEdgeStyle={&quot;edgeStyle&quot;:&quot;elbowEdgeStyle&quot;,&quot;elbow&quot;:&quot;vertical&quot;,&quot;curved&quot;:0,&quot;rounded&quot;:0};labelBackgroundColor=none;fillColor=#F2CC8F;strokeColor=#E07A5F;fontColor=#393C56;fontSize=15;" vertex="1" parent="CdbsHKp1LZGs0OKYdoEk-16">
          <mxGeometry x="15" y="760" width="10" height="40" as="geometry" />
        </mxCell>
        <mxCell id="CdbsHKp1LZGs0OKYdoEk-18" value="&lt;b&gt;&lt;u&gt;: NguoiQuanTri&lt;/u&gt;&lt;/b&gt;" style="text;html=1;align=center;verticalAlign=middle;resizable=0;points=[];autosize=1;strokeColor=none;fillColor=none;labelBackgroundColor=none;fontColor=#393C56;fontSize=15;" vertex="1" parent="1">
          <mxGeometry x="39" y="90" width="130" height="30" as="geometry" />
        </mxCell>
        <mxCell id="CdbsHKp1LZGs0OKYdoEk-19" value="1. kich muc &quot;Khach hang&quot;()" style="html=1;verticalAlign=bottom;endArrow=block;curved=0;rounded=0;labelBackgroundColor=none;strokeColor=#E07A5F;fontColor=default;fontSize=15;" edge="1" parent="1" target="CdbsHKp1LZGs0OKYdoEk-8">
          <mxGeometry width="80" relative="1" as="geometry">
            <mxPoint x="104" y="140" as="sourcePoint" />
            <mxPoint x="184" y="140" as="targetPoint" />
          </mxGeometry>
        </mxCell>
        <mxCell id="CdbsHKp1LZGs0OKYdoEk-25" value="&lt;b&gt;5. hien thi danh sach khach hang()&lt;/b&gt;" style="text;html=1;align=center;verticalAlign=middle;resizable=0;points=[];autosize=1;strokeColor=none;fillColor=none;labelBackgroundColor=none;fontColor=#393C56;fontSize=15;" vertex="1" parent="1">
          <mxGeometry x="216" y="216" width="270" height="30" as="geometry" />
        </mxCell>
        <mxCell id="CdbsHKp1LZGs0OKYdoEk-26" value="" style="html=1;verticalAlign=bottom;endArrow=block;curved=0;rounded=0;exitX=0.536;exitY=1.089;exitDx=0;exitDy=0;exitPerimeter=0;labelBackgroundColor=none;strokeColor=#E07A5F;fontColor=default;fontSize=15;" edge="1" parent="1">
          <mxGeometry x="0.0588" y="30" width="80" relative="1" as="geometry">
            <mxPoint x="359.97333333333336" y="240.66999999999985" as="sourcePoint" />
            <mxPoint x="358" y="258" as="targetPoint" />
            <Array as="points">
              <mxPoint x="408.3333333333335" y="240" />
              <mxPoint x="408.3333333333335" y="258" />
            </Array>
            <mxPoint as="offset" />
          </mxGeometry>
        </mxCell>
        <mxCell id="CdbsHKp1LZGs0OKYdoEk-29" value="2. lay thong tin khach hang()" style="html=1;verticalAlign=bottom;endArrow=block;curved=0;rounded=0;labelBackgroundColor=none;strokeColor=#E07A5F;fontColor=default;fontSize=15;" edge="1" parent="1">
          <mxGeometry width="80" relative="1" as="geometry">
            <mxPoint x="360" y="160" as="sourcePoint" />
            <mxPoint x="563" y="160" as="targetPoint" />
          </mxGeometry>
        </mxCell>
        <mxCell id="CdbsHKp1LZGs0OKYdoEk-31" value="3. getUsers()" style="html=1;verticalAlign=bottom;endArrow=block;curved=0;rounded=0;labelBackgroundColor=none;strokeColor=#E07A5F;fontColor=default;fontSize=15;" edge="1" parent="1">
          <mxGeometry width="80" relative="1" as="geometry">
            <mxPoint x="572" y="180" as="sourcePoint" />
            <mxPoint x="762" y="180" as="targetPoint" />
          </mxGeometry>
        </mxCell>
        <mxCell id="CdbsHKp1LZGs0OKYdoEk-32" value="4. return ket qua" style="html=1;verticalAlign=bottom;endArrow=open;dashed=1;endSize=8;curved=0;rounded=0;strokeWidth=1;labelBackgroundColor=none;strokeColor=#E07A5F;fontColor=default;fontSize=15;" edge="1" parent="1">
          <mxGeometry relative="1" as="geometry">
            <mxPoint x="561" y="200" as="sourcePoint" />
            <mxPoint x="360" y="200" as="targetPoint" />
          </mxGeometry>
        </mxCell>
        <mxCell id="CdbsHKp1LZGs0OKYdoEk-34" value="6. kich nut &quot;Them khach hang&quot;()" style="html=1;verticalAlign=bottom;endArrow=block;curved=0;rounded=0;labelBackgroundColor=none;strokeColor=#E07A5F;fontColor=default;fontSize=15;" edge="1" parent="1">
          <mxGeometry width="80" relative="1" as="geometry">
            <mxPoint x="100" y="270" as="sourcePoint" />
            <mxPoint x="350" y="270" as="targetPoint" />
          </mxGeometry>
        </mxCell>
        <mxCell id="CdbsHKp1LZGs0OKYdoEk-35" value="&lt;span style=&quot;color: rgba(0, 0, 0, 0); font-family: monospace; text-align: start;&quot;&gt;%3CmxGraphModel%3E%3Croot%3E%3CmxCell%20id%3D%220%22%2F%3E%3CmxCell%20id%3D%221%22%20parent%3D%220%22%2F%3E%3CmxCell%20id%3D%222%22%20value%3D%22dispatch%22%20style%3D%22html%3D1%3BverticalAlign%3Dbottom%3BendArrow%3Dblock%3BedgeStyle%3DelbowEdgeStyle%3Belbow%3Dvertical%3Bcurved%3D0%3Brounded%3D0%3B%22%20edge%3D%221%22%20parent%3D%221%22%3E%3CmxGeometry%20relative%3D%221%22%20as%3D%22geometry%22%3E%3CmxPoint%20x%3D%2295%22%20y%3D%22120%22%20as%3D%22sourcePoint%22%2F%3E%3CArray%20as%3D%22points%22%3E%3CmxPoint%20x%3D%22180%22%20y%3D%22120%22%2F%3E%3C%2FArray%3E%3CmxPoint%20x%3D%22295%22%20y%3D%22120%22%20as%3D%22targetPoint%22%2F%3E%3C%2FmxGeometry%3E%3C%2FmxCell%3E%3C%2Froot%3E%3C%2FmxGraphModel%3E&lt;/span&gt;" style="html=1;points=[];perimeter=orthogonalPerimeter;outlineConnect=0;targetShapes=umlLifeline;portConstraint=eastwest;newEdgeStyle={&quot;edgeStyle&quot;:&quot;elbowEdgeStyle&quot;,&quot;elbow&quot;:&quot;vertical&quot;,&quot;curved&quot;:0,&quot;rounded&quot;:0};labelBackgroundColor=none;fillColor=#F2CC8F;strokeColor=#E07A5F;fontColor=#393C56;fontSize=15;" vertex="1" parent="1">
          <mxGeometry x="349" y="309" width="10" height="31" as="geometry" />
        </mxCell>
        <mxCell id="CdbsHKp1LZGs0OKYdoEk-36" value="&lt;b&gt;7. hien thi form them khach hang()&lt;/b&gt;" style="text;html=1;align=center;verticalAlign=middle;resizable=0;points=[];autosize=1;strokeColor=none;fillColor=none;labelBackgroundColor=none;fontColor=#393C56;fontSize=15;" vertex="1" parent="1">
          <mxGeometry x="216" y="285" width="270" height="30" as="geometry" />
        </mxCell>
        <mxCell id="CdbsHKp1LZGs0OKYdoEk-37" value="" style="html=1;verticalAlign=bottom;endArrow=block;curved=0;rounded=0;exitX=0.536;exitY=1.089;exitDx=0;exitDy=0;exitPerimeter=0;labelBackgroundColor=none;strokeColor=#E07A5F;fontColor=default;fontSize=15;" edge="1" parent="1">
          <mxGeometry x="0.0588" y="30" width="80" relative="1" as="geometry">
            <mxPoint x="359.97333333333336" y="309.66999999999985" as="sourcePoint" />
            <mxPoint x="358" y="327" as="targetPoint" />
            <Array as="points">
              <mxPoint x="408.3333333333335" y="309" />
              <mxPoint x="408.3333333333335" y="327" />
            </Array>
            <mxPoint as="offset" />
          </mxGeometry>
        </mxCell>
        <mxCell id="CdbsHKp1LZGs0OKYdoEk-40" value="8. nhap thong tin moi()" style="html=1;verticalAlign=bottom;endArrow=block;curved=0;rounded=0;labelBackgroundColor=none;strokeColor=#E07A5F;fontColor=default;fontSize=15;" edge="1" parent="1">
          <mxGeometry width="80" relative="1" as="geometry">
            <mxPoint x="99" y="350" as="sourcePoint" />
            <mxPoint x="349" y="350" as="targetPoint" />
          </mxGeometry>
        </mxCell>
        <mxCell id="CdbsHKp1LZGs0OKYdoEk-43" value="9. kich nut &quot;Them&quot;()" style="html=1;verticalAlign=bottom;endArrow=block;curved=0;rounded=0;labelBackgroundColor=none;strokeColor=#E07A5F;fontColor=default;fontSize=15;" edge="1" parent="1">
          <mxGeometry width="80" relative="1" as="geometry">
            <mxPoint x="99" y="380" as="sourcePoint" />
            <mxPoint x="349" y="380" as="targetPoint" />
          </mxGeometry>
        </mxCell>
        <mxCell id="CdbsHKp1LZGs0OKYdoEk-45" value="10. them khach hang()" style="html=1;verticalAlign=bottom;endArrow=block;curved=0;rounded=0;labelBackgroundColor=none;strokeColor=#E07A5F;fontColor=default;fontSize=15;" edge="1" parent="1">
          <mxGeometry width="80" relative="1" as="geometry">
            <mxPoint x="360" y="400" as="sourcePoint" />
            <mxPoint x="563" y="400" as="targetPoint" />
          </mxGeometry>
        </mxCell>
        <mxCell id="CdbsHKp1LZGs0OKYdoEk-47" value="11. createUsers()" style="html=1;verticalAlign=bottom;endArrow=block;curved=0;rounded=0;labelBackgroundColor=none;strokeColor=#E07A5F;fontColor=default;fontSize=15;" edge="1" parent="1">
          <mxGeometry width="80" relative="1" as="geometry">
            <mxPoint x="571" y="420" as="sourcePoint" />
            <mxPoint x="761" y="420" as="targetPoint" />
          </mxGeometry>
        </mxCell>
        <mxCell id="CdbsHKp1LZGs0OKYdoEk-51" value="12. getUsersByUserId()" style="html=1;verticalAlign=bottom;endArrow=block;curved=0;rounded=0;labelBackgroundColor=none;strokeColor=#E07A5F;fontColor=default;fontSize=15;" edge="1" parent="1">
          <mxGeometry width="80" relative="1" as="geometry">
            <mxPoint x="570" y="450" as="sourcePoint" />
            <mxPoint x="760" y="450" as="targetPoint" />
          </mxGeometry>
        </mxCell>
        <mxCell id="CdbsHKp1LZGs0OKYdoEk-52" value="&lt;span style=&quot;color: rgba(0, 0, 0, 0); font-family: monospace; text-align: start;&quot;&gt;%3CmxGraphModel%3E%3Croot%3E%3CmxCell%20id%3D%220%22%2F%3E%3CmxCell%20id%3D%221%22%20parent%3D%220%22%2F%3E%3CmxCell%20id%3D%222%22%20value%3D%22dispatch%22%20style%3D%22html%3D1%3BverticalAlign%3Dbottom%3BendArrow%3Dblock%3BedgeStyle%3DelbowEdgeStyle%3Belbow%3Dvertical%3Bcurved%3D0%3Brounded%3D0%3B%22%20edge%3D%221%22%20parent%3D%221%22%3E%3CmxGeometry%20relative%3D%221%22%20as%3D%22geometry%22%3E%3CmxPoint%20x%3D%2295%22%20y%3D%22120%22%20as%3D%22sourcePoint%22%2F%3E%3CArray%20as%3D%22points%22%3E%3CmxPoint%20x%3D%22180%22%20y%3D%22120%22%2F%3E%3C%2FArray%3E%3CmxPoint%20x%3D%22295%22%20y%3D%22120%22%20as%3D%22targetPoint%22%2F%3E%3C%2FmxGeometry%3E%3C%2FmxCell%3E%3C%2Froot%3E%3C%2FmxGraphModel%3E&lt;/span&gt;" style="html=1;points=[];perimeter=orthogonalPerimeter;outlineConnect=0;targetShapes=umlLifeline;portConstraint=eastwest;newEdgeStyle={&quot;edgeStyle&quot;:&quot;elbowEdgeStyle&quot;,&quot;elbow&quot;:&quot;vertical&quot;,&quot;curved&quot;:0,&quot;rounded&quot;:0};labelBackgroundColor=none;fillColor=#F2CC8F;strokeColor=#E07A5F;fontColor=#393C56;fontSize=15;" vertex="1" parent="1">
          <mxGeometry x="349" y="470" width="10" height="20" as="geometry" />
        </mxCell>
        <mxCell id="CdbsHKp1LZGs0OKYdoEk-53" value="13. return ket qua" style="html=1;verticalAlign=bottom;endArrow=open;dashed=1;endSize=8;curved=0;rounded=0;strokeWidth=1;labelBackgroundColor=none;strokeColor=#E07A5F;fontColor=default;fontSize=15;" edge="1" parent="1">
          <mxGeometry relative="1" as="geometry">
            <mxPoint x="560" y="470" as="sourcePoint" />
            <mxPoint x="359" y="470" as="targetPoint" />
          </mxGeometry>
        </mxCell>
        <mxCell id="CdbsHKp1LZGs0OKYdoEk-54" value="&lt;span style=&quot;color: rgba(0, 0, 0, 0); font-family: monospace; text-align: start;&quot;&gt;%3CmxGraphModel%3E%3Croot%3E%3CmxCell%20id%3D%220%22%2F%3E%3CmxCell%20id%3D%221%22%20parent%3D%220%22%2F%3E%3CmxCell%20id%3D%222%22%20value%3D%22dispatch%22%20style%3D%22html%3D1%3BverticalAlign%3Dbottom%3BendArrow%3Dblock%3BedgeStyle%3DelbowEdgeStyle%3Belbow%3Dvertical%3Bcurved%3D0%3Brounded%3D0%3B%22%20edge%3D%221%22%20parent%3D%221%22%3E%3CmxGeometry%20relative%3D%221%22%20as%3D%22geometry%22%3E%3CmxPoint%20x%3D%2295%22%20y%3D%22120%22%20as%3D%22sourcePoint%22%2F%3E%3CArray%20as%3D%22points%22%3E%3CmxPoint%20x%3D%22180%22%20y%3D%22120%22%2F%3E%3C%2FArray%3E%3CmxPoint%20x%3D%22295%22%20y%3D%22120%22%20as%3D%22targetPoint%22%2F%3E%3C%2FmxGeometry%3E%3C%2FmxCell%3E%3C%2Froot%3E%3C%2FmxGraphModel%3E&lt;/span&gt;" style="html=1;points=[];perimeter=orthogonalPerimeter;outlineConnect=0;targetShapes=umlLifeline;portConstraint=eastwest;newEdgeStyle={&quot;edgeStyle&quot;:&quot;elbowEdgeStyle&quot;,&quot;elbow&quot;:&quot;vertical&quot;,&quot;curved&quot;:0,&quot;rounded&quot;:0};labelBackgroundColor=none;fillColor=#F2CC8F;strokeColor=#E07A5F;fontColor=#393C56;fontSize=15;" vertex="1" parent="1">
          <mxGeometry x="349" y="511" width="10" height="49" as="geometry" />
        </mxCell>
        <mxCell id="CdbsHKp1LZGs0OKYdoEk-55" value="&lt;b&gt;14. hien thi danh sach sau khi them()&lt;/b&gt;" style="text;html=1;align=center;verticalAlign=middle;resizable=0;points=[];autosize=1;strokeColor=none;fillColor=none;labelBackgroundColor=none;fontColor=#393C56;fontSize=15;" vertex="1" parent="1">
          <mxGeometry x="206" y="487" width="290" height="30" as="geometry" />
        </mxCell>
        <mxCell id="CdbsHKp1LZGs0OKYdoEk-56" value="" style="html=1;verticalAlign=bottom;endArrow=block;curved=0;rounded=0;exitX=0.536;exitY=1.089;exitDx=0;exitDy=0;exitPerimeter=0;labelBackgroundColor=none;strokeColor=#E07A5F;fontColor=default;fontSize=15;" edge="1" parent="1">
          <mxGeometry x="0.0588" y="30" width="80" relative="1" as="geometry">
            <mxPoint x="359.97333333333336" y="511.66999999999985" as="sourcePoint" />
            <mxPoint x="358" y="529" as="targetPoint" />
            <Array as="points">
              <mxPoint x="408.3333333333335" y="511" />
              <mxPoint x="408.3333333333335" y="529" />
            </Array>
            <mxPoint as="offset" />
          </mxGeometry>
        </mxCell>
        <mxCell id="CdbsHKp1LZGs0OKYdoEk-58" value="15. chon mot dong de xoa()" style="html=1;verticalAlign=bottom;endArrow=block;curved=0;rounded=0;labelBackgroundColor=none;strokeColor=#E07A5F;fontColor=default;fontSize=15;" edge="1" parent="1">
          <mxGeometry width="80" relative="1" as="geometry">
            <mxPoint x="101" y="540" as="sourcePoint" />
            <mxPoint x="351" y="540" as="targetPoint" />
          </mxGeometry>
        </mxCell>
        <mxCell id="CdbsHKp1LZGs0OKYdoEk-61" value="16. kich bieu tuong thung rac()" style="html=1;verticalAlign=bottom;endArrow=block;curved=0;rounded=0;labelBackgroundColor=none;strokeColor=#E07A5F;fontColor=default;fontSize=15;" edge="1" parent="1">
          <mxGeometry width="80" relative="1" as="geometry">
            <mxPoint x="103" y="570" as="sourcePoint" />
            <mxPoint x="353" y="570" as="targetPoint" />
          </mxGeometry>
        </mxCell>
        <mxCell id="CdbsHKp1LZGs0OKYdoEk-62" value="" style="html=1;verticalAlign=bottom;endArrow=block;curved=0;rounded=0;exitX=0.536;exitY=1.089;exitDx=0;exitDy=0;exitPerimeter=0;labelBackgroundColor=none;strokeColor=#E07A5F;fontColor=default;fontSize=15;" edge="1" parent="1">
          <mxGeometry x="0.0588" y="30" width="80" relative="1" as="geometry">
            <mxPoint x="359.97333333333336" y="589.6699999999998" as="sourcePoint" />
            <mxPoint x="358" y="607" as="targetPoint" />
            <Array as="points">
              <mxPoint x="408.3333333333335" y="589" />
              <mxPoint x="408.3333333333335" y="607" />
            </Array>
            <mxPoint as="offset" />
          </mxGeometry>
        </mxCell>
        <mxCell id="CdbsHKp1LZGs0OKYdoEk-63" value="&lt;b&gt;17. hien thi thong bao xac nhan xoa()&lt;/b&gt;" style="text;html=1;align=center;verticalAlign=middle;resizable=0;points=[];autosize=1;strokeColor=none;fillColor=none;labelBackgroundColor=none;fontColor=#393C56;fontSize=15;" vertex="1" parent="1">
          <mxGeometry x="329" y="560" width="290" height="30" as="geometry" />
        </mxCell>
        <mxCell id="CdbsHKp1LZGs0OKYdoEk-65" value="18. kich nut &quot;Xoa&quot;()" style="html=1;verticalAlign=bottom;endArrow=block;curved=0;rounded=0;labelBackgroundColor=none;strokeColor=#E07A5F;fontColor=default;fontSize=15;" edge="1" parent="1">
          <mxGeometry width="80" relative="1" as="geometry">
            <mxPoint x="101" y="620" as="sourcePoint" />
            <mxPoint x="351" y="620" as="targetPoint" />
          </mxGeometry>
        </mxCell>
        <mxCell id="CdbsHKp1LZGs0OKYdoEk-67" value="19. xoa khach hang()" style="html=1;verticalAlign=bottom;endArrow=block;curved=0;rounded=0;labelBackgroundColor=none;strokeColor=#E07A5F;fontColor=default;fontSize=15;" edge="1" parent="1">
          <mxGeometry width="80" relative="1" as="geometry">
            <mxPoint x="360" y="640" as="sourcePoint" />
            <mxPoint x="563" y="640" as="targetPoint" />
          </mxGeometry>
        </mxCell>
        <mxCell id="CdbsHKp1LZGs0OKYdoEk-69" value="20. deleteUsersByUserId()" style="html=1;verticalAlign=bottom;endArrow=block;curved=0;rounded=0;labelBackgroundColor=none;strokeColor=#E07A5F;fontColor=default;fontSize=15;" edge="1" parent="1">
          <mxGeometry width="80" relative="1" as="geometry">
            <mxPoint x="571" y="660" as="sourcePoint" />
            <mxPoint x="761" y="660" as="targetPoint" />
          </mxGeometry>
        </mxCell>
        <mxCell id="CdbsHKp1LZGs0OKYdoEk-72" value="21. getUsersByUserId()" style="html=1;verticalAlign=bottom;endArrow=block;curved=0;rounded=0;labelBackgroundColor=none;strokeColor=#E07A5F;fontColor=default;fontSize=15;" edge="1" parent="1">
          <mxGeometry width="80" relative="1" as="geometry">
            <mxPoint x="570" y="690" as="sourcePoint" />
            <mxPoint x="760" y="690" as="targetPoint" />
          </mxGeometry>
        </mxCell>
        <mxCell id="CdbsHKp1LZGs0OKYdoEk-74" value="22. return ket qua" style="html=1;verticalAlign=bottom;endArrow=open;dashed=1;endSize=8;curved=0;rounded=0;strokeWidth=1;labelBackgroundColor=none;strokeColor=#E07A5F;fontColor=default;fontSize=15;" edge="1" parent="1">
          <mxGeometry relative="1" as="geometry">
            <mxPoint x="560" y="710" as="sourcePoint" />
            <mxPoint x="359" y="710" as="targetPoint" />
          </mxGeometry>
        </mxCell>
        <mxCell id="CdbsHKp1LZGs0OKYdoEk-75" value="&lt;span style=&quot;color: rgba(0, 0, 0, 0); font-family: monospace; text-align: start;&quot;&gt;%3CmxGraphModel%3E%3Croot%3E%3CmxCell%20id%3D%220%22%2F%3E%3CmxCell%20id%3D%221%22%20parent%3D%220%22%2F%3E%3CmxCell%20id%3D%222%22%20value%3D%22dispatch%22%20style%3D%22html%3D1%3BverticalAlign%3Dbottom%3BendArrow%3Dblock%3BedgeStyle%3DelbowEdgeStyle%3Belbow%3Dvertical%3Bcurved%3D0%3Brounded%3D0%3B%22%20edge%3D%221%22%20parent%3D%221%22%3E%3CmxGeometry%20relative%3D%221%22%20as%3D%22geometry%22%3E%3CmxPoint%20x%3D%2295%22%20y%3D%22120%22%20as%3D%22sourcePoint%22%2F%3E%3CArray%20as%3D%22points%22%3E%3CmxPoint%20x%3D%22180%22%20y%3D%22120%22%2F%3E%3C%2FArray%3E%3CmxPoint%20x%3D%22295%22%20y%3D%22120%22%20as%3D%22targetPoint%22%2F%3E%3C%2FmxGeometry%3E%3C%2FmxCell%3E%3C%2Froot%3E%3C%2FmxGraphModel%3E&lt;/span&gt;" style="html=1;points=[];perimeter=orthogonalPerimeter;outlineConnect=0;targetShapes=umlLifeline;portConstraint=eastwest;newEdgeStyle={&quot;edgeStyle&quot;:&quot;elbowEdgeStyle&quot;,&quot;elbow&quot;:&quot;vertical&quot;,&quot;curved&quot;:0,&quot;rounded&quot;:0};labelBackgroundColor=none;fillColor=#F2CC8F;strokeColor=#E07A5F;fontColor=#393C56;fontSize=15;" vertex="1" parent="1">
          <mxGeometry x="349" y="751" width="10" height="31" as="geometry" />
        </mxCell>
        <mxCell id="CdbsHKp1LZGs0OKYdoEk-76" value="&lt;b&gt;23. hien thi danh sach sau ki xoa()&lt;/b&gt;" style="text;html=1;align=center;verticalAlign=middle;resizable=0;points=[];autosize=1;strokeColor=none;fillColor=none;labelBackgroundColor=none;fontColor=#393C56;fontSize=15;" vertex="1" parent="1">
          <mxGeometry x="216" y="727" width="270" height="30" as="geometry" />
        </mxCell>
        <mxCell id="CdbsHKp1LZGs0OKYdoEk-77" value="" style="html=1;verticalAlign=bottom;endArrow=block;curved=0;rounded=0;exitX=0.536;exitY=1.089;exitDx=0;exitDy=0;exitPerimeter=0;labelBackgroundColor=none;strokeColor=#E07A5F;fontColor=default;fontSize=15;" edge="1" parent="1">
          <mxGeometry x="0.0588" y="30" width="80" relative="1" as="geometry">
            <mxPoint x="359.97333333333336" y="751.6699999999998" as="sourcePoint" />
            <mxPoint x="358" y="769" as="targetPoint" />
            <Array as="points">
              <mxPoint x="408.3333333333335" y="751" />
              <mxPoint x="408.3333333333335" y="769" />
            </Array>
            <mxPoint as="offset" />
          </mxGeometry>
        </mxCell>
        <mxCell id="CdbsHKp1LZGs0OKYdoEk-80" value="24. nhap tu khoa can tim kiem()" style="html=1;verticalAlign=bottom;endArrow=block;curved=0;rounded=0;labelBackgroundColor=none;strokeColor=#E07A5F;fontColor=default;fontSize=15;" edge="1" parent="1">
          <mxGeometry width="80" relative="1" as="geometry">
            <mxPoint x="102" y="790" as="sourcePoint" />
            <mxPoint x="352" y="790" as="targetPoint" />
          </mxGeometry>
        </mxCell>
        <mxCell id="CdbsHKp1LZGs0OKYdoEk-82" value="25. lay thong tin khach hang can tim()" style="html=1;verticalAlign=bottom;endArrow=block;curved=0;rounded=0;labelBackgroundColor=none;strokeColor=#E07A5F;fontColor=default;fontSize=15;" edge="1" parent="1">
          <mxGeometry width="80" relative="1" as="geometry">
            <mxPoint x="359" y="810" as="sourcePoint" />
            <mxPoint x="562" y="810" as="targetPoint" />
          </mxGeometry>
        </mxCell>
        <mxCell id="CdbsHKp1LZGs0OKYdoEk-84" value="26. getUsersByName()" style="html=1;verticalAlign=bottom;endArrow=block;curved=0;rounded=0;labelBackgroundColor=none;strokeColor=#E07A5F;fontColor=default;fontSize=15;" edge="1" parent="1">
          <mxGeometry width="80" relative="1" as="geometry">
            <mxPoint x="570" y="830" as="sourcePoint" />
            <mxPoint x="760" y="830" as="targetPoint" />
          </mxGeometry>
        </mxCell>
        <mxCell id="CdbsHKp1LZGs0OKYdoEk-85" value="27. return ket qua" style="html=1;verticalAlign=bottom;endArrow=open;dashed=1;endSize=8;curved=0;rounded=0;strokeWidth=1;labelBackgroundColor=none;strokeColor=#E07A5F;fontColor=default;fontSize=15;" edge="1" parent="1">
          <mxGeometry relative="1" as="geometry">
            <mxPoint x="560" y="850" as="sourcePoint" />
            <mxPoint x="359" y="850" as="targetPoint" />
          </mxGeometry>
        </mxCell>
        <mxCell id="CdbsHKp1LZGs0OKYdoEk-86" value="" style="html=1;verticalAlign=bottom;endArrow=block;curved=0;rounded=0;exitX=0.536;exitY=1.089;exitDx=0;exitDy=0;exitPerimeter=0;labelBackgroundColor=none;strokeColor=#E07A5F;fontColor=default;fontSize=15;" edge="1" parent="1">
          <mxGeometry x="0.0588" y="30" width="80" relative="1" as="geometry">
            <mxPoint x="359.97333333333336" y="881.6699999999998" as="sourcePoint" />
            <mxPoint x="358" y="899" as="targetPoint" />
            <Array as="points">
              <mxPoint x="408.3333333333335" y="881" />
              <mxPoint x="408.3333333333335" y="899" />
            </Array>
            <mxPoint as="offset" />
          </mxGeometry>
        </mxCell>
        <mxCell id="CdbsHKp1LZGs0OKYdoEk-87" value="&lt;b&gt;28. hien thi thong tin khach hang can tim()&lt;/b&gt;" style="text;html=1;align=center;verticalAlign=middle;resizable=0;points=[];autosize=1;strokeColor=none;fillColor=none;labelBackgroundColor=none;fontColor=#393C56;fontSize=15;" vertex="1" parent="1">
          <mxGeometry x="206" y="850" width="320" height="30" as="geometry" />
        </mxCell>
      </root>
    </mxGraphModel>
  </diagram>
</mxfile>
